<svg xmlns="http://www.w3.org/2000/svg" viewBox="0 0 320 320">
  <rect width="320" height="320" rx="48" fill="#f2e7e3"/>
  <circle cx="160" cy="112" r="56" fill="#dcb6a9"/>
  <path d="M96 276c10-52 48-84 64-84s54 32 64 84" fill="#535b72"/>
  <path d="M126 104c10-22 30-34 58-30 9 1 17 5 24 11-6-20-24-37-48-37-29 0-53 24-53 53 0 12 4 23 10 32 1-8 4-19 9-29Z" fill="#2f4858"/>
  <rect x="116" y="226" width="88" height="10" rx="5" fill="#c29a9e"/>
  <text x="160" y="298" text-anchor="middle" font-family="Manrope, sans-serif" font-size="26" font-weight="700" fill="#2f4858">알베르 카뮈</text>
</svg>
