<svg xmlns="http://www.w3.org/2000/svg" viewBox="0 0 320 320">
  <rect width="320" height="320" rx="48" fill="#f2e7e3"/>
  <circle cx="160" cy="108" r="54" fill="#ecd9d2"/>
  <path d="M100 278c8-56 40-94 60-94s52 38 60 94" fill="#535b72"/>
  <path d="M126 104c2-30 16-52 34-58 18 2 32 16 40 38 2 8 4 15 4 22-7-8-16-12-28-14-8 17-21 29-40 38-8-7-11-15-10-26Z" fill="#7b6e85"/>
  <path d="M132 154c15 10 41 10 56 0-4 17-18 28-28 28s-24-11-28-28Z" fill="#dcb6a9"/>
  <text x="160" y="298" text-anchor="middle" font-family="Manrope, sans-serif" font-size="25" font-weight="700" fill="#2f4858">에픽테토스</text>
</svg>
