<svg xmlns="http://www.w3.org/2000/svg" viewBox="0 0 320 320">
  <rect width="320" height="320" rx="48" fill="#f2e7e3"/>
  <circle cx="160" cy="110" r="55" fill="#dcb6a9"/>
  <path d="M95 278c10-54 45-90 65-90s55 36 65 90" fill="#535b72"/>
  <path d="M118 104c8-30 29-51 53-51 29 0 53 24 53 53 0 6-1 12-3 18-9-11-19-18-31-21-8 10-17 18-30 24-13-3-25-11-35-23-3 8-5 18-7 28-4-9-4-19 0-28Z" fill="#2f4858"/>
  <rect x="118" y="145" width="26" height="12" rx="6" fill="#fffdfc"/>
  <rect x="176" y="145" width="26" height="12" rx="6" fill="#fffdfc"/>
  <rect x="142" y="149" width="34" height="4" rx="2" fill="#2f4858"/>
  <text x="160" y="298" text-anchor="middle" font-family="Manrope, sans-serif" font-size="22" font-weight="700" fill="#2f4858">장 폴 사르트르</text>
</svg>
